<mxfile host="app.diagrams.net" agent="Mozilla/5.0 (Windows NT 10.0; Win64; x64) AppleWebKit/537.36 (KHTML, like Gecko) Chrome/134.0.0.0 Safari/537.36" version="26.1.1">
  <diagram name="第 1 页" id="8Gkt_5k_5_PJbNFNiaN0">
    <mxGraphModel dx="2261" dy="738" grid="1" gridSize="10" guides="1" tooltips="1" connect="1" arrows="1" fold="1" page="1" pageScale="1" pageWidth="827" pageHeight="1169" math="0" shadow="0">
      <root>
        <mxCell id="0" />
        <mxCell id="1" parent="0" />
        <mxCell id="gHaaGcS_bvuYW3JebILp-3" value="前端" style="shape=umlLifeline;perimeter=lifelinePerimeter;whiteSpace=wrap;html=1;container=1;dropTarget=0;collapsible=0;recursiveResize=0;outlineConnect=0;portConstraint=eastwest;newEdgeStyle={&quot;curved&quot;:0,&quot;rounded&quot;:0};" parent="1" vertex="1">
          <mxGeometry x="-50" y="690" width="100" height="590" as="geometry" />
        </mxCell>
        <mxCell id="gHaaGcS_bvuYW3JebILp-19" value="" style="html=1;points=[[0,0,0,0,5],[0,1,0,0,-5],[1,0,0,0,5],[1,1,0,0,-5]];perimeter=orthogonalPerimeter;outlineConnect=0;targetShapes=umlLifeline;portConstraint=eastwest;newEdgeStyle={&quot;curved&quot;:0,&quot;rounded&quot;:0};" parent="gHaaGcS_bvuYW3JebILp-3" vertex="1">
          <mxGeometry x="45" y="230" width="10" height="40" as="geometry" />
        </mxCell>
        <mxCell id="gHaaGcS_bvuYW3JebILp-41" value="" style="html=1;points=[[0,0,0,0,5],[0,1,0,0,-5],[1,0,0,0,5],[1,1,0,0,-5]];perimeter=orthogonalPerimeter;outlineConnect=0;targetShapes=umlLifeline;portConstraint=eastwest;newEdgeStyle={&quot;curved&quot;:0,&quot;rounded&quot;:0};" parent="gHaaGcS_bvuYW3JebILp-3" vertex="1">
          <mxGeometry x="45" y="520" width="10" height="20" as="geometry" />
        </mxCell>
        <mxCell id="gHaaGcS_bvuYW3JebILp-6" value="妙课Server" style="shape=umlLifeline;perimeter=lifelinePerimeter;whiteSpace=wrap;html=1;container=1;dropTarget=0;collapsible=0;recursiveResize=0;outlineConnect=0;portConstraint=eastwest;newEdgeStyle={&quot;curved&quot;:0,&quot;rounded&quot;:0};" parent="1" vertex="1">
          <mxGeometry x="170" y="690" width="100" height="580" as="geometry" />
        </mxCell>
        <mxCell id="gHaaGcS_bvuYW3JebILp-10" value="" style="html=1;points=[[0,0,0,0,5],[0,1,0,0,-5],[1,0,0,0,5],[1,1,0,0,-5]];perimeter=orthogonalPerimeter;outlineConnect=0;targetShapes=umlLifeline;portConstraint=eastwest;newEdgeStyle={&quot;curved&quot;:0,&quot;rounded&quot;:0};" parent="gHaaGcS_bvuYW3JebILp-6" vertex="1">
          <mxGeometry x="45" y="70" width="10" height="200" as="geometry" />
        </mxCell>
        <mxCell id="gHaaGcS_bvuYW3JebILp-12" value="" style="html=1;points=[[0,0,0,0,5],[0,1,0,0,-5],[1,0,0,0,5],[1,1,0,0,-5]];perimeter=orthogonalPerimeter;outlineConnect=0;targetShapes=umlLifeline;portConstraint=eastwest;newEdgeStyle={&quot;curved&quot;:0,&quot;rounded&quot;:0};" parent="gHaaGcS_bvuYW3JebILp-6" vertex="1">
          <mxGeometry x="50" y="120" width="10" height="40" as="geometry" />
        </mxCell>
        <mxCell id="gHaaGcS_bvuYW3JebILp-13" value="校验参数&lt;div&gt;封装3D任务&lt;/div&gt;" style="html=1;align=left;spacingLeft=2;endArrow=block;rounded=0;edgeStyle=orthogonalEdgeStyle;curved=0;rounded=0;" parent="gHaaGcS_bvuYW3JebILp-6" target="gHaaGcS_bvuYW3JebILp-12" edge="1">
          <mxGeometry x="0.0118" relative="1" as="geometry">
            <mxPoint x="55" y="100" as="sourcePoint" />
            <Array as="points">
              <mxPoint x="85" y="130" />
            </Array>
            <mxPoint as="offset" />
          </mxGeometry>
        </mxCell>
        <mxCell id="gHaaGcS_bvuYW3JebILp-32" value="" style="html=1;points=[[0,0,0,0,5],[0,1,0,0,-5],[1,0,0,0,5],[1,1,0,0,-5]];perimeter=orthogonalPerimeter;outlineConnect=0;targetShapes=umlLifeline;portConstraint=eastwest;newEdgeStyle={&quot;curved&quot;:0,&quot;rounded&quot;:0};" parent="gHaaGcS_bvuYW3JebILp-6" vertex="1">
          <mxGeometry x="45" y="400" width="10" height="140" as="geometry" />
        </mxCell>
        <mxCell id="gHaaGcS_bvuYW3JebILp-7" value="消息队列" style="shape=umlLifeline;perimeter=lifelinePerimeter;whiteSpace=wrap;html=1;container=1;dropTarget=0;collapsible=0;recursiveResize=0;outlineConnect=0;portConstraint=eastwest;newEdgeStyle={&quot;curved&quot;:0,&quot;rounded&quot;:0};" parent="1" vertex="1">
          <mxGeometry x="390" y="690" width="100" height="460" as="geometry" />
        </mxCell>
        <mxCell id="gHaaGcS_bvuYW3JebILp-21" value="" style="html=1;points=[[0,0,0,0,5],[0,1,0,0,-5],[1,0,0,0,5],[1,1,0,0,-5]];perimeter=orthogonalPerimeter;outlineConnect=0;targetShapes=umlLifeline;portConstraint=eastwest;newEdgeStyle={&quot;curved&quot;:0,&quot;rounded&quot;:0};" parent="gHaaGcS_bvuYW3JebILp-7" vertex="1">
          <mxGeometry x="45" y="210" width="10" height="80" as="geometry" />
        </mxCell>
        <mxCell id="gHaaGcS_bvuYW3JebILp-29" value="" style="html=1;points=[[0,0,0,0,5],[0,1,0,0,-5],[1,0,0,0,5],[1,1,0,0,-5]];perimeter=orthogonalPerimeter;outlineConnect=0;targetShapes=umlLifeline;portConstraint=eastwest;newEdgeStyle={&quot;curved&quot;:0,&quot;rounded&quot;:0};" parent="gHaaGcS_bvuYW3JebILp-7" vertex="1">
          <mxGeometry x="45" y="350" width="10" height="80" as="geometry" />
        </mxCell>
        <mxCell id="gHaaGcS_bvuYW3JebILp-8" value="3D资源生成服务" style="shape=umlLifeline;perimeter=lifelinePerimeter;whiteSpace=wrap;html=1;container=1;dropTarget=0;collapsible=0;recursiveResize=0;outlineConnect=0;portConstraint=eastwest;newEdgeStyle={&quot;curved&quot;:0,&quot;rounded&quot;:0};" parent="1" vertex="1">
          <mxGeometry x="620" y="690" width="100" height="430" as="geometry" />
        </mxCell>
        <mxCell id="gHaaGcS_bvuYW3JebILp-24" value="" style="html=1;points=[[0,0,0,0,5],[0,1,0,0,-5],[1,0,0,0,5],[1,1,0,0,-5]];perimeter=orthogonalPerimeter;outlineConnect=0;targetShapes=umlLifeline;portConstraint=eastwest;newEdgeStyle={&quot;curved&quot;:0,&quot;rounded&quot;:0};" parent="gHaaGcS_bvuYW3JebILp-8" vertex="1">
          <mxGeometry x="45" y="240" width="10" height="170" as="geometry" />
        </mxCell>
        <mxCell id="gHaaGcS_bvuYW3JebILp-26" value="" style="html=1;points=[[0,0,0,0,5],[0,1,0,0,-5],[1,0,0,0,5],[1,1,0,0,-5]];perimeter=orthogonalPerimeter;outlineConnect=0;targetShapes=umlLifeline;portConstraint=eastwest;newEdgeStyle={&quot;curved&quot;:0,&quot;rounded&quot;:0};" parent="gHaaGcS_bvuYW3JebILp-8" vertex="1">
          <mxGeometry x="50" y="290" width="10" height="40" as="geometry" />
        </mxCell>
        <mxCell id="gHaaGcS_bvuYW3JebILp-27" value="执行3D资源生成&lt;div&gt;搜索3D模型&lt;/div&gt;" style="html=1;align=left;spacingLeft=2;endArrow=block;rounded=0;edgeStyle=orthogonalEdgeStyle;curved=0;rounded=0;" parent="gHaaGcS_bvuYW3JebILp-8" target="gHaaGcS_bvuYW3JebILp-26" edge="1">
          <mxGeometry relative="1" as="geometry">
            <mxPoint x="55" y="270" as="sourcePoint" />
            <Array as="points">
              <mxPoint x="85" y="300" />
            </Array>
          </mxGeometry>
        </mxCell>
        <mxCell id="gHaaGcS_bvuYW3JebILp-9" value="妙课Server数据库" style="shape=umlLifeline;perimeter=lifelinePerimeter;whiteSpace=wrap;html=1;container=1;dropTarget=0;collapsible=0;recursiveResize=0;outlineConnect=0;portConstraint=eastwest;newEdgeStyle={&quot;curved&quot;:0,&quot;rounded&quot;:0};" parent="1" vertex="1">
          <mxGeometry x="860" y="690" width="100" height="540" as="geometry" />
        </mxCell>
        <mxCell id="gHaaGcS_bvuYW3JebILp-14" value="" style="html=1;points=[[0,0,0,0,5],[0,1,0,0,-5],[1,0,0,0,5],[1,1,0,0,-5]];perimeter=orthogonalPerimeter;outlineConnect=0;targetShapes=umlLifeline;portConstraint=eastwest;newEdgeStyle={&quot;curved&quot;:0,&quot;rounded&quot;:0};" parent="gHaaGcS_bvuYW3JebILp-9" vertex="1">
          <mxGeometry x="45" y="160" width="10" height="50" as="geometry" />
        </mxCell>
        <mxCell id="gHaaGcS_bvuYW3JebILp-38" value="" style="html=1;points=[[0,0,0,0,5],[0,1,0,0,-5],[1,0,0,0,5],[1,1,0,0,-5]];perimeter=orthogonalPerimeter;outlineConnect=0;targetShapes=umlLifeline;portConstraint=eastwest;newEdgeStyle={&quot;curved&quot;:0,&quot;rounded&quot;:0};" parent="gHaaGcS_bvuYW3JebILp-9" vertex="1">
          <mxGeometry x="45" y="430" width="10" height="80" as="geometry" />
        </mxCell>
        <mxCell id="gHaaGcS_bvuYW3JebILp-11" value="发送资源生成请求&lt;div&gt;关键词&lt;/div&gt;" style="html=1;verticalAlign=bottom;startArrow=oval;endArrow=block;startSize=8;curved=0;rounded=0;entryX=0;entryY=0;entryDx=0;entryDy=5;" parent="1" edge="1">
          <mxGeometry x="0.0302" y="5" relative="1" as="geometry">
            <mxPoint y="780.0000000000002" as="sourcePoint" />
            <mxPoint x="215.5" y="780.0000000000002" as="targetPoint" />
            <mxPoint as="offset" />
          </mxGeometry>
        </mxCell>
        <mxCell id="gHaaGcS_bvuYW3JebILp-15" value="插入任务记录&lt;div&gt;维护任务状态&lt;/div&gt;" style="html=1;verticalAlign=bottom;startArrow=oval;startFill=1;endArrow=block;startSize=8;curved=0;rounded=0;" parent="1" target="gHaaGcS_bvuYW3JebILp-9" edge="1">
          <mxGeometry x="0.0007" y="10" width="60" relative="1" as="geometry">
            <mxPoint x="230" y="880" as="sourcePoint" />
            <mxPoint x="290" y="880" as="targetPoint" />
            <mxPoint as="offset" />
          </mxGeometry>
        </mxCell>
        <mxCell id="gHaaGcS_bvuYW3JebILp-20" value="返回前端&lt;div&gt;资源生成中&lt;/div&gt;" style="html=1;verticalAlign=bottom;endArrow=open;dashed=1;endSize=8;curved=0;rounded=0;sourcePerimeterSpacing=1;" parent="1" edge="1">
          <mxGeometry x="-0.0673" y="-10" relative="1" as="geometry">
            <mxPoint x="215.5" y="940" as="sourcePoint" />
            <mxPoint y="940" as="targetPoint" />
            <mxPoint as="offset" />
          </mxGeometry>
        </mxCell>
        <mxCell id="gHaaGcS_bvuYW3JebILp-22" value="异步发送3D生成任务&lt;div&gt;到消息队列&lt;/div&gt;" style="html=1;verticalAlign=bottom;startArrow=circle;startFill=1;endArrow=open;startSize=6;endSize=8;curved=0;rounded=0;" parent="1" target="gHaaGcS_bvuYW3JebILp-7" edge="1">
          <mxGeometry width="80" relative="1" as="geometry">
            <mxPoint x="220" y="920" as="sourcePoint" />
            <mxPoint x="300" y="920" as="targetPoint" />
          </mxGeometry>
        </mxCell>
        <mxCell id="gHaaGcS_bvuYW3JebILp-25" value="推送任务" style="html=1;verticalAlign=bottom;startArrow=circle;startFill=1;endArrow=open;startSize=6;endSize=8;curved=0;rounded=0;" parent="1" target="gHaaGcS_bvuYW3JebILp-8" edge="1">
          <mxGeometry width="80" relative="1" as="geometry">
            <mxPoint x="440" y="950" as="sourcePoint" />
            <mxPoint x="520" y="950" as="targetPoint" />
          </mxGeometry>
        </mxCell>
        <mxCell id="gHaaGcS_bvuYW3JebILp-30" value="发送关键词与&lt;div&gt;图片及对应链接&lt;/div&gt;" style="html=1;verticalAlign=bottom;endArrow=open;dashed=1;endSize=8;curved=0;rounded=0;" parent="1" source="gHaaGcS_bvuYW3JebILp-8" target="gHaaGcS_bvuYW3JebILp-7" edge="1">
          <mxGeometry x="0.0783" y="-10" relative="1" as="geometry">
            <mxPoint x="640" y="1070" as="sourcePoint" />
            <mxPoint x="560" y="1070" as="targetPoint" />
            <Array as="points">
              <mxPoint x="610" y="1070" />
            </Array>
            <mxPoint as="offset" />
          </mxGeometry>
        </mxCell>
        <mxCell id="gHaaGcS_bvuYW3JebILp-33" value="推送关键词与&lt;div&gt;图片及对应链接&lt;/div&gt;" style="html=1;verticalAlign=bottom;endArrow=open;dashed=1;endSize=8;curved=0;rounded=0;exitX=0;exitY=1;exitDx=0;exitDy=-5;exitPerimeter=0;" parent="1" source="gHaaGcS_bvuYW3JebILp-29" target="gHaaGcS_bvuYW3JebILp-6" edge="1">
          <mxGeometry relative="1" as="geometry">
            <mxPoint x="370" y="1100" as="sourcePoint" />
            <mxPoint x="290" y="1100" as="targetPoint" />
          </mxGeometry>
        </mxCell>
        <mxCell id="gHaaGcS_bvuYW3JebILp-39" value="更新任务记录" style="html=1;verticalAlign=bottom;startArrow=oval;startFill=1;endArrow=block;startSize=8;curved=0;rounded=0;" parent="1" target="gHaaGcS_bvuYW3JebILp-9" edge="1">
          <mxGeometry width="60" relative="1" as="geometry">
            <mxPoint x="230" y="1170" as="sourcePoint" />
            <mxPoint x="290" y="1170" as="targetPoint" />
          </mxGeometry>
        </mxCell>
        <mxCell id="gHaaGcS_bvuYW3JebILp-42" value="返回前端关键词及&lt;div&gt;图片列表信息&lt;/div&gt;" style="html=1;verticalAlign=bottom;endArrow=open;dashed=1;endSize=8;curved=0;rounded=0;entryX=1;entryY=1;entryDx=0;entryDy=-5;entryPerimeter=0;" parent="1" source="gHaaGcS_bvuYW3JebILp-6" target="gHaaGcS_bvuYW3JebILp-41" edge="1">
          <mxGeometry relative="1" as="geometry">
            <mxPoint x="140" y="1220" as="sourcePoint" />
            <mxPoint x="60" y="1220" as="targetPoint" />
          </mxGeometry>
        </mxCell>
        <mxCell id="zgQfk_fnJUzU70toARou-1" value="" style="strokeWidth=2;html=1;shape=mxgraph.flowchart.annotation_2;align=left;labelPosition=right;pointerEvents=1;" vertex="1" parent="1">
          <mxGeometry x="-150" y="690" width="50" height="590" as="geometry" />
        </mxCell>
        <mxCell id="zgQfk_fnJUzU70toARou-2" value="搜索3D模型交互" style="text;html=1;align=center;verticalAlign=middle;resizable=0;points=[];autosize=1;strokeColor=none;fillColor=none;" vertex="1" parent="1">
          <mxGeometry x="-260" y="970" width="110" height="30" as="geometry" />
        </mxCell>
        <mxCell id="zgQfk_fnJUzU70toARou-3" value="前端" style="shape=umlLifeline;perimeter=lifelinePerimeter;whiteSpace=wrap;html=1;container=1;dropTarget=0;collapsible=0;recursiveResize=0;outlineConnect=0;portConstraint=eastwest;newEdgeStyle={&quot;curved&quot;:0,&quot;rounded&quot;:0};" vertex="1" parent="1">
          <mxGeometry x="-41" y="1520" width="100" height="760" as="geometry" />
        </mxCell>
        <mxCell id="zgQfk_fnJUzU70toARou-4" value="" style="html=1;points=[[0,0,0,0,5],[0,1,0,0,-5],[1,0,0,0,5],[1,1,0,0,-5]];perimeter=orthogonalPerimeter;outlineConnect=0;targetShapes=umlLifeline;portConstraint=eastwest;newEdgeStyle={&quot;curved&quot;:0,&quot;rounded&quot;:0};" vertex="1" parent="zgQfk_fnJUzU70toARou-3">
          <mxGeometry x="45" y="230" width="10" height="40" as="geometry" />
        </mxCell>
        <mxCell id="zgQfk_fnJUzU70toARou-5" value="" style="html=1;points=[[0,0,0,0,5],[0,1,0,0,-5],[1,0,0,0,5],[1,1,0,0,-5]];perimeter=orthogonalPerimeter;outlineConnect=0;targetShapes=umlLifeline;portConstraint=eastwest;newEdgeStyle={&quot;curved&quot;:0,&quot;rounded&quot;:0};" vertex="1" parent="zgQfk_fnJUzU70toARou-3">
          <mxGeometry x="45" y="510" width="10" height="30" as="geometry" />
        </mxCell>
        <mxCell id="zgQfk_fnJUzU70toARou-36" value="" style="html=1;points=[[0,0,0,0,5],[0,1,0,0,-5],[1,0,0,0,5],[1,1,0,0,-5]];perimeter=orthogonalPerimeter;outlineConnect=0;targetShapes=umlLifeline;portConstraint=eastwest;newEdgeStyle={&quot;curved&quot;:0,&quot;rounded&quot;:0};" vertex="1" parent="zgQfk_fnJUzU70toARou-3">
          <mxGeometry x="46" y="600" width="10" height="150" as="geometry" />
        </mxCell>
        <mxCell id="zgQfk_fnJUzU70toARou-6" value="妙课Server" style="shape=umlLifeline;perimeter=lifelinePerimeter;whiteSpace=wrap;html=1;container=1;dropTarget=0;collapsible=0;recursiveResize=0;outlineConnect=0;portConstraint=eastwest;newEdgeStyle={&quot;curved&quot;:0,&quot;rounded&quot;:0};" vertex="1" parent="1">
          <mxGeometry x="179" y="1520" width="100" height="770" as="geometry" />
        </mxCell>
        <mxCell id="zgQfk_fnJUzU70toARou-7" value="" style="html=1;points=[[0,0,0,0,5],[0,1,0,0,-5],[1,0,0,0,5],[1,1,0,0,-5]];perimeter=orthogonalPerimeter;outlineConnect=0;targetShapes=umlLifeline;portConstraint=eastwest;newEdgeStyle={&quot;curved&quot;:0,&quot;rounded&quot;:0};" vertex="1" parent="zgQfk_fnJUzU70toARou-6">
          <mxGeometry x="45" y="70" width="10" height="200" as="geometry" />
        </mxCell>
        <mxCell id="zgQfk_fnJUzU70toARou-8" value="" style="html=1;points=[[0,0,0,0,5],[0,1,0,0,-5],[1,0,0,0,5],[1,1,0,0,-5]];perimeter=orthogonalPerimeter;outlineConnect=0;targetShapes=umlLifeline;portConstraint=eastwest;newEdgeStyle={&quot;curved&quot;:0,&quot;rounded&quot;:0};" vertex="1" parent="zgQfk_fnJUzU70toARou-6">
          <mxGeometry x="50" y="120" width="10" height="40" as="geometry" />
        </mxCell>
        <mxCell id="zgQfk_fnJUzU70toARou-9" value="校验参数&lt;div&gt;封装3D任务&lt;/div&gt;" style="html=1;align=left;spacingLeft=2;endArrow=block;rounded=0;edgeStyle=orthogonalEdgeStyle;curved=0;rounded=0;" edge="1" parent="zgQfk_fnJUzU70toARou-6" target="zgQfk_fnJUzU70toARou-8">
          <mxGeometry x="0.0118" relative="1" as="geometry">
            <mxPoint x="55" y="100" as="sourcePoint" />
            <Array as="points">
              <mxPoint x="85" y="130" />
            </Array>
            <mxPoint as="offset" />
          </mxGeometry>
        </mxCell>
        <mxCell id="zgQfk_fnJUzU70toARou-10" value="" style="html=1;points=[[0,0,0,0,5],[0,1,0,0,-5],[1,0,0,0,5],[1,1,0,0,-5]];perimeter=orthogonalPerimeter;outlineConnect=0;targetShapes=umlLifeline;portConstraint=eastwest;newEdgeStyle={&quot;curved&quot;:0,&quot;rounded&quot;:0};" vertex="1" parent="zgQfk_fnJUzU70toARou-6">
          <mxGeometry x="45" y="400" width="10" height="140" as="geometry" />
        </mxCell>
        <mxCell id="zgQfk_fnJUzU70toARou-37" value="" style="html=1;outlineConnect=0;targetShapes=umlLifeline;portConstraint=eastwest;newEdgeStyle={&quot;curved&quot;:0,&quot;rounded&quot;:0};points=[[0,0,0,0,5],[0,1,0,0,-5],[1,0,0,0,5],[1,1,0,0,-5]];perimeter=orthogonalPerimeter;" vertex="1" parent="zgQfk_fnJUzU70toARou-6">
          <mxGeometry x="46" y="600" width="10" height="140" as="geometry" />
        </mxCell>
        <mxCell id="zgQfk_fnJUzU70toARou-41" value="" style="html=1;points=[[0,0,0,0,5],[0,1,0,0,-5],[1,0,0,0,5],[1,1,0,0,-5]];perimeter=orthogonalPerimeter;outlineConnect=0;targetShapes=umlLifeline;portConstraint=eastwest;newEdgeStyle={&quot;curved&quot;:0,&quot;rounded&quot;:0};" vertex="1" parent="zgQfk_fnJUzU70toARou-6">
          <mxGeometry x="51" y="660" width="10" height="40" as="geometry" />
        </mxCell>
        <mxCell id="zgQfk_fnJUzU70toARou-42" value="去OSS服务器读取文件&lt;div&gt;下载给用户&lt;/div&gt;" style="html=1;align=left;spacingLeft=2;endArrow=block;rounded=0;edgeStyle=orthogonalEdgeStyle;curved=0;rounded=0;" edge="1" target="zgQfk_fnJUzU70toARou-41" parent="zgQfk_fnJUzU70toARou-6">
          <mxGeometry relative="1" as="geometry">
            <mxPoint x="56" y="640" as="sourcePoint" />
            <Array as="points">
              <mxPoint x="86" y="670" />
            </Array>
          </mxGeometry>
        </mxCell>
        <mxCell id="zgQfk_fnJUzU70toARou-11" value="消息队列" style="shape=umlLifeline;perimeter=lifelinePerimeter;whiteSpace=wrap;html=1;container=1;dropTarget=0;collapsible=0;recursiveResize=0;outlineConnect=0;portConstraint=eastwest;newEdgeStyle={&quot;curved&quot;:0,&quot;rounded&quot;:0};" vertex="1" parent="1">
          <mxGeometry x="399" y="1520" width="100" height="460" as="geometry" />
        </mxCell>
        <mxCell id="zgQfk_fnJUzU70toARou-12" value="" style="html=1;points=[[0,0,0,0,5],[0,1,0,0,-5],[1,0,0,0,5],[1,1,0,0,-5]];perimeter=orthogonalPerimeter;outlineConnect=0;targetShapes=umlLifeline;portConstraint=eastwest;newEdgeStyle={&quot;curved&quot;:0,&quot;rounded&quot;:0};" vertex="1" parent="zgQfk_fnJUzU70toARou-11">
          <mxGeometry x="45" y="210" width="10" height="80" as="geometry" />
        </mxCell>
        <mxCell id="zgQfk_fnJUzU70toARou-13" value="" style="html=1;points=[[0,0,0,0,5],[0,1,0,0,-5],[1,0,0,0,5],[1,1,0,0,-5]];perimeter=orthogonalPerimeter;outlineConnect=0;targetShapes=umlLifeline;portConstraint=eastwest;newEdgeStyle={&quot;curved&quot;:0,&quot;rounded&quot;:0};" vertex="1" parent="zgQfk_fnJUzU70toARou-11">
          <mxGeometry x="45" y="350" width="10" height="80" as="geometry" />
        </mxCell>
        <mxCell id="zgQfk_fnJUzU70toARou-14" value="3D资源生成服务" style="shape=umlLifeline;perimeter=lifelinePerimeter;whiteSpace=wrap;html=1;container=1;dropTarget=0;collapsible=0;recursiveResize=0;outlineConnect=0;portConstraint=eastwest;newEdgeStyle={&quot;curved&quot;:0,&quot;rounded&quot;:0};" vertex="1" parent="1">
          <mxGeometry x="629" y="1520" width="100" height="430" as="geometry" />
        </mxCell>
        <mxCell id="zgQfk_fnJUzU70toARou-15" value="" style="html=1;points=[[0,0,0,0,5],[0,1,0,0,-5],[1,0,0,0,5],[1,1,0,0,-5]];perimeter=orthogonalPerimeter;outlineConnect=0;targetShapes=umlLifeline;portConstraint=eastwest;newEdgeStyle={&quot;curved&quot;:0,&quot;rounded&quot;:0};" vertex="1" parent="zgQfk_fnJUzU70toARou-14">
          <mxGeometry x="45" y="240" width="10" height="170" as="geometry" />
        </mxCell>
        <mxCell id="zgQfk_fnJUzU70toARou-16" value="" style="html=1;points=[[0,0,0,0,5],[0,1,0,0,-5],[1,0,0,0,5],[1,1,0,0,-5]];perimeter=orthogonalPerimeter;outlineConnect=0;targetShapes=umlLifeline;portConstraint=eastwest;newEdgeStyle={&quot;curved&quot;:0,&quot;rounded&quot;:0};" vertex="1" parent="zgQfk_fnJUzU70toARou-14">
          <mxGeometry x="50" y="290" width="10" height="40" as="geometry" />
        </mxCell>
        <mxCell id="zgQfk_fnJUzU70toARou-17" value="这个环节目前3D这边&lt;div&gt;应该是人工下载&lt;/div&gt;&lt;div&gt;然后通过脚本传递OSS服务器&lt;/div&gt;&lt;div&gt;将OSS服务器存储的地址&lt;/div&gt;&lt;div&gt;发给妙课Server&lt;/div&gt;" style="html=1;align=left;spacingLeft=2;endArrow=block;rounded=0;edgeStyle=orthogonalEdgeStyle;curved=0;rounded=0;" edge="1" parent="zgQfk_fnJUzU70toARou-14" target="zgQfk_fnJUzU70toARou-16">
          <mxGeometry x="0.0118" relative="1" as="geometry">
            <mxPoint x="55" y="270" as="sourcePoint" />
            <Array as="points">
              <mxPoint x="85" y="300" />
            </Array>
            <mxPoint as="offset" />
          </mxGeometry>
        </mxCell>
        <mxCell id="zgQfk_fnJUzU70toARou-18" value="妙课Server数据库" style="shape=umlLifeline;perimeter=lifelinePerimeter;whiteSpace=wrap;html=1;container=1;dropTarget=0;collapsible=0;recursiveResize=0;outlineConnect=0;portConstraint=eastwest;newEdgeStyle={&quot;curved&quot;:0,&quot;rounded&quot;:0};" vertex="1" parent="1">
          <mxGeometry x="869" y="1520" width="100" height="540" as="geometry" />
        </mxCell>
        <mxCell id="zgQfk_fnJUzU70toARou-19" value="" style="html=1;points=[[0,0,0,0,5],[0,1,0,0,-5],[1,0,0,0,5],[1,1,0,0,-5]];perimeter=orthogonalPerimeter;outlineConnect=0;targetShapes=umlLifeline;portConstraint=eastwest;newEdgeStyle={&quot;curved&quot;:0,&quot;rounded&quot;:0};" vertex="1" parent="zgQfk_fnJUzU70toARou-18">
          <mxGeometry x="45" y="160" width="10" height="50" as="geometry" />
        </mxCell>
        <mxCell id="zgQfk_fnJUzU70toARou-20" value="" style="html=1;points=[[0,0,0,0,5],[0,1,0,0,-5],[1,0,0,0,5],[1,1,0,0,-5]];perimeter=orthogonalPerimeter;outlineConnect=0;targetShapes=umlLifeline;portConstraint=eastwest;newEdgeStyle={&quot;curved&quot;:0,&quot;rounded&quot;:0};" vertex="1" parent="zgQfk_fnJUzU70toARou-18">
          <mxGeometry x="45" y="430" width="10" height="80" as="geometry" />
        </mxCell>
        <mxCell id="zgQfk_fnJUzU70toARou-21" value="用户预览3D模型&lt;div&gt;选择后发起请求&lt;/div&gt;" style="html=1;verticalAlign=bottom;startArrow=oval;endArrow=block;startSize=8;curved=0;rounded=0;entryX=0;entryY=0;entryDx=0;entryDy=5;" edge="1" parent="1">
          <mxGeometry x="0.0302" y="5" relative="1" as="geometry">
            <mxPoint x="9" y="1610.0000000000002" as="sourcePoint" />
            <mxPoint x="224.5" y="1610.0000000000002" as="targetPoint" />
            <mxPoint as="offset" />
          </mxGeometry>
        </mxCell>
        <mxCell id="zgQfk_fnJUzU70toARou-22" value="插入任务记录&lt;div&gt;维护任务状态&lt;/div&gt;" style="html=1;verticalAlign=bottom;startArrow=oval;startFill=1;endArrow=block;startSize=8;curved=0;rounded=0;" edge="1" parent="1" target="zgQfk_fnJUzU70toARou-18">
          <mxGeometry x="0.0007" y="10" width="60" relative="1" as="geometry">
            <mxPoint x="239" y="1710" as="sourcePoint" />
            <mxPoint x="299" y="1710" as="targetPoint" />
            <mxPoint as="offset" />
          </mxGeometry>
        </mxCell>
        <mxCell id="zgQfk_fnJUzU70toARou-23" value="返回前端&lt;div&gt;资源生成中&lt;/div&gt;" style="html=1;verticalAlign=bottom;endArrow=open;dashed=1;endSize=8;curved=0;rounded=0;sourcePerimeterSpacing=1;" edge="1" parent="1">
          <mxGeometry x="-0.0673" y="-10" relative="1" as="geometry">
            <mxPoint x="224.5" y="1770" as="sourcePoint" />
            <mxPoint x="9" y="1770" as="targetPoint" />
            <mxPoint as="offset" />
          </mxGeometry>
        </mxCell>
        <mxCell id="zgQfk_fnJUzU70toARou-24" value="异步发送3D生成任务&lt;div&gt;到消息队列&lt;/div&gt;" style="html=1;verticalAlign=bottom;startArrow=circle;startFill=1;endArrow=open;startSize=6;endSize=8;curved=0;rounded=0;" edge="1" parent="1" target="zgQfk_fnJUzU70toARou-11">
          <mxGeometry width="80" relative="1" as="geometry">
            <mxPoint x="229" y="1750" as="sourcePoint" />
            <mxPoint x="309" y="1750" as="targetPoint" />
          </mxGeometry>
        </mxCell>
        <mxCell id="zgQfk_fnJUzU70toARou-25" value="推送任务" style="html=1;verticalAlign=bottom;startArrow=circle;startFill=1;endArrow=open;startSize=6;endSize=8;curved=0;rounded=0;" edge="1" parent="1" target="zgQfk_fnJUzU70toARou-14">
          <mxGeometry width="80" relative="1" as="geometry">
            <mxPoint x="449" y="1780" as="sourcePoint" />
            <mxPoint x="529" y="1780" as="targetPoint" />
          </mxGeometry>
        </mxCell>
        <mxCell id="zgQfk_fnJUzU70toARou-26" value="发送OSS文件地址" style="html=1;verticalAlign=bottom;endArrow=open;dashed=1;endSize=8;curved=0;rounded=0;" edge="1" parent="1" source="zgQfk_fnJUzU70toARou-14" target="zgQfk_fnJUzU70toARou-11">
          <mxGeometry x="0.0783" y="-10" relative="1" as="geometry">
            <mxPoint x="649" y="1900" as="sourcePoint" />
            <mxPoint x="569" y="1900" as="targetPoint" />
            <Array as="points">
              <mxPoint x="619" y="1900" />
            </Array>
            <mxPoint as="offset" />
          </mxGeometry>
        </mxCell>
        <mxCell id="zgQfk_fnJUzU70toARou-27" value="根据3D服务发送的oss地址&lt;div&gt;记录到表中，有7天限时&lt;/div&gt;" style="html=1;verticalAlign=bottom;endArrow=open;dashed=1;endSize=8;curved=0;rounded=0;exitX=0;exitY=1;exitDx=0;exitDy=-5;exitPerimeter=0;" edge="1" parent="1" source="zgQfk_fnJUzU70toARou-13" target="zgQfk_fnJUzU70toARou-6">
          <mxGeometry relative="1" as="geometry">
            <mxPoint x="379" y="1930" as="sourcePoint" />
            <mxPoint x="299" y="1930" as="targetPoint" />
          </mxGeometry>
        </mxCell>
        <mxCell id="zgQfk_fnJUzU70toARou-28" value="更新任务记录" style="html=1;verticalAlign=bottom;startArrow=oval;startFill=1;endArrow=block;startSize=8;curved=0;rounded=0;" edge="1" parent="1" target="zgQfk_fnJUzU70toARou-18">
          <mxGeometry width="60" relative="1" as="geometry">
            <mxPoint x="239" y="2000" as="sourcePoint" />
            <mxPoint x="299" y="2000" as="targetPoint" />
          </mxGeometry>
        </mxCell>
        <mxCell id="zgQfk_fnJUzU70toARou-29" value="返回前端任务执行完毕的状态&lt;div&gt;展示模型下载界面&lt;/div&gt;" style="html=1;verticalAlign=bottom;endArrow=open;dashed=1;endSize=8;curved=0;rounded=0;entryX=1;entryY=1;entryDx=0;entryDy=-5;entryPerimeter=0;" edge="1" parent="1" source="zgQfk_fnJUzU70toARou-6" target="zgQfk_fnJUzU70toARou-5">
          <mxGeometry x="-0.0023" relative="1" as="geometry">
            <mxPoint x="149" y="2050" as="sourcePoint" />
            <mxPoint x="69" y="2050" as="targetPoint" />
            <mxPoint as="offset" />
          </mxGeometry>
        </mxCell>
        <mxCell id="zgQfk_fnJUzU70toARou-30" value="" style="strokeWidth=2;html=1;shape=mxgraph.flowchart.annotation_2;align=left;labelPosition=right;pointerEvents=1;" vertex="1" parent="1">
          <mxGeometry x="-141" y="1520" width="50" height="770" as="geometry" />
        </mxCell>
        <mxCell id="zgQfk_fnJUzU70toARou-31" value="生成/下载&lt;br&gt;3D模型" style="text;html=1;align=center;verticalAlign=middle;resizable=0;points=[];autosize=1;strokeColor=none;fillColor=none;" vertex="1" parent="1">
          <mxGeometry x="-231" y="1880" width="70" height="40" as="geometry" />
        </mxCell>
        <mxCell id="zgQfk_fnJUzU70toARou-38" value="前端在下载界面&lt;div&gt;发起下载请求&lt;/div&gt;" style="html=1;verticalAlign=bottom;startArrow=oval;startFill=1;endArrow=block;startSize=8;curved=0;rounded=0;" edge="1" parent="1" target="zgQfk_fnJUzU70toARou-6">
          <mxGeometry width="60" relative="1" as="geometry">
            <mxPoint x="20" y="2130" as="sourcePoint" />
            <mxPoint x="80" y="2130" as="targetPoint" />
          </mxGeometry>
        </mxCell>
        <mxCell id="zgQfk_fnJUzU70toARou-44" value="传输模型文件" style="html=1;verticalAlign=bottom;endArrow=open;dashed=1;endSize=8;curved=0;rounded=0;exitX=0.48;exitY=0.934;exitDx=0;exitDy=0;exitPerimeter=0;" edge="1" parent="1" source="zgQfk_fnJUzU70toARou-6" target="zgQfk_fnJUzU70toARou-3">
          <mxGeometry relative="1" as="geometry">
            <mxPoint x="160" y="2240" as="sourcePoint" />
            <mxPoint x="80" y="2240" as="targetPoint" />
          </mxGeometry>
        </mxCell>
        <mxCell id="zgQfk_fnJUzU70toARou-46" value="这块后续看前端交互如何设计在调整" style="shape=note;whiteSpace=wrap;html=1;backgroundOutline=1;darkOpacity=0.05;" vertex="1" parent="1">
          <mxGeometry x="490" y="2140" width="160" height="100" as="geometry" />
        </mxCell>
        <mxCell id="zgQfk_fnJUzU70toARou-47" value="后续还会补充关于代币体系的信息" style="shape=note;whiteSpace=wrap;html=1;backgroundOutline=1;darkOpacity=0.05;fillColor=#ffe6cc;strokeColor=#d79b00;" vertex="1" parent="1">
          <mxGeometry x="-311" y="490" width="201" height="110" as="geometry" />
        </mxCell>
      </root>
    </mxGraphModel>
  </diagram>
</mxfile>
